<?xml version="1.0" encoding="UTF-8" standalone="no"?>
<!-- Created with Inkscape (http://www.inkscape.org/) -->

<svg
   xmlns:dc="http://purl.org/dc/elements/1.1/"
   xmlns:cc="http://creativecommons.org/ns#"
   xmlns:rdf="http://www.w3.org/1999/02/22-rdf-syntax-ns#"
   xmlns:svg="http://www.w3.org/2000/svg"
   xmlns="http://www.w3.org/2000/svg"
   xmlns:sodipodi="http://sodipodi.sourceforge.net/DTD/sodipodi-0.dtd"
   xmlns:inkscape="http://www.inkscape.org/namespaces/inkscape"
   width="138.65556mm"
   height="226.71872mm"
   viewBox="0 0 138.65556 226.71872"
   version="1.1"
   id="svg6132"
   inkscape:version="0.92.4 5da689c313, 2019-01-14"
   sodipodi:docname="fury_mono.svg">
  <defs
     id="defs6126" />
  <sodipodi:namedview
     id="base"
     pagecolor="#ffffff"
     bordercolor="#666666"
     borderopacity="1.0"
     inkscape:pageopacity="0.0"
     inkscape:pageshadow="2"
     inkscape:zoom="0.35"
     inkscape:cx="-363.68802"
     inkscape:cy="422.73052"
     inkscape:document-units="mm"
     inkscape:current-layer="layer1"
     showgrid="false"
     fit-margin-top="0"
     fit-margin-left="0"
     fit-margin-right="0"
     fit-margin-bottom="0"
     inkscape:window-width="4500"
     inkscape:window-height="2977"
     inkscape:window-x="0"
     inkscape:window-y="23"
     inkscape:window-maximized="0" />
  <metadata
     id="metadata6129">
    <rdf:RDF>
      <cc:Work
         rdf:about="">
        <dc:format>image/svg+xml</dc:format>
        <dc:type
           rdf:resource="http://purl.org/dc/dcmitype/StillImage" />
        <dc:title></dc:title>
      </cc:Work>
    </rdf:RDF>
  </metadata>
  <g
     inkscape:label="Layer 1"
     inkscape:groupmode="layer"
     id="layer1"
     transform="translate(-38.773409,-33.96206)">
    <g
       transform="translate(241.26271,-260.91411)"
       style="display:inline"
       id="g6107">
      <g
         id="g4647">
        <path
           style="display:inline;opacity:1;fill:#969696;fill-opacity:0.24206351;fill-rule:nonzero;stroke:none;stroke-width:1.26499999;stroke-miterlimit:4;stroke-dasharray:none;stroke-opacity:1"
           d="m -133.16163,301.22636 c -32.06803,0 -58.06416,19.64612 -58.06416,51.71415 0,10.99289 3.05468,21.27211 8.36176,30.03538 3.94909,6.52088 9.14596,12.20196 15.2585,16.71319 1.3e-4,2.6e-4 2.7e-4,7.9e-4 5.3e-4,0.001 0.013,0.01 0.0263,0.0188 0.0393,0.0284 0.2722,0.20053 0.54585,0.39892 0.82165,0.59479 0.005,0.004 0.01,0.007 0.015,0.0109 0.0743,0.0528 0.14967,0.10416 0.22427,0.15658 0.21038,0.14783 0.42166,0.29468 0.63407,0.43977 0.0973,0.0665 0.19526,0.13202 0.29301,0.19792 0.19682,0.13269 0.3942,0.26447 0.59273,0.39481 0.0975,0.064 0.19511,0.12777 0.293,0.1912 0.20849,0.13509 0.41807,0.26854 0.62839,0.40101 0.0843,0.0531 0.1681,0.107 0.2527,0.15968 0.27075,0.1686 0.54278,0.33496 0.81648,0.49919 0.0264,0.0158 0.0527,0.0318 0.0791,0.0476 0.29485,0.17628 0.59166,0.34972 0.88987,0.52089 0.0928,0.0533 0.18641,0.10534 0.27957,0.15813 0.21554,0.12215 0.4318,0.24331 0.64905,0.36277 0.10501,0.0577 0.21034,0.11498 0.31574,0.17209 0.20253,0.10972 0.40582,0.21818 0.60979,0.32556 0.10846,0.0571 0.21669,0.11461 0.32556,0.17105 0.23137,0.11993 0.46393,0.23759 0.69711,0.3545 0.079,0.0396 0.15747,0.0801 0.23668,0.11937 0.31221,0.15474 0.62618,0.30705 0.94155,0.4563 0.0666,0.0315 0.13381,0.0618 0.2005,0.093 0.2397,0.11233 0.47992,0.22366 0.7214,0.33279 0.12882,0.0582 0.25826,0.1153 0.38758,0.17261 0.20099,0.0891 0.40243,0.17722 0.60461,0.26406 0.11501,0.0494 0.23033,0.0981 0.34571,0.14676 0.22966,0.0969 0.46028,0.19229 0.69144,0.28629 0.0932,0.0379 0.18613,0.0763 0.27957,0.11369 0.29875,0.11966 0.59851,0.2371 0.89968,0.35192 0.0311,0.0118 0.0619,0.0244 0.093,0.0362 0.004,10e-4 0.008,0.003 0.0114,0.004 0.32546,0.12336 0.65259,0.24358 0.98082,0.36122 0.0872,0.0313 0.17508,0.0611 0.26251,0.092 0.2493,0.088 0.49898,0.17474 0.74983,0.25941 0.10611,0.0358 0.21245,0.0712 0.31884,0.10645 0.23236,0.0769 0.46553,0.15229 0.69918,0.22635 0.1136,0.036 0.22717,0.0722 0.34107,0.10748 0.26716,0.0829 0.53528,0.16327 0.80408,0.24237 0.0693,0.0204 0.13828,0.0419 0.20774,0.062 0.34013,0.0987 0.68155,0.1942 1.02423,0.2868 0.0917,0.0248 0.18405,0.048 0.27595,0.0723 0.24806,0.0657 0.49634,0.13076 0.74569,0.19327 0.12858,0.0322 0.25762,0.0632 0.38654,0.0946 0.22157,0.0539 0.44356,0.10676 0.66611,0.15813 0.14005,0.0323 0.28022,0.0643 0.42065,0.0956 0.21708,0.0484 0.43468,0.0951 0.65267,0.14108 0.12506,0.0264 0.24982,0.0535 0.37517,0.0791 0.30227,0.0616 0.60555,0.12085 0.90951,0.17777 0.0494,0.009 0.0984,0.0193 0.14779,0.0284 0.0139,0.003 0.028,0.005 0.0419,0.007 0.34252,0.063 0.68635,0.12292 1.03094,0.17984 0.0859,0.0142 0.17231,0.027 0.25839,0.0408 0.26542,0.0426 0.53127,0.084 0.79788,0.12299 0.13056,0.0191 0.26139,0.0371 0.39222,0.0553 0.2318,0.0323 0.46394,0.0635 0.6966,0.093 0.12845,0.0163 0.2568,0.0326 0.38551,0.0481 0.26417,0.0318 0.52901,0.0612 0.79426,0.0894 0.10032,0.0107 0.2003,0.0224 0.30076,0.0326 0.35956,0.0363 0.72012,0.0695 1.08159,0.0992 0.0813,0.007 0.16305,0.0117 0.24443,0.0181 0.27562,0.0215 0.55168,0.0418 0.82837,0.0594 0.13692,0.009 0.27417,0.016 0.41135,0.0238 0.24648,0.014 0.49323,0.0268 0.74052,0.0377 0.1169,0.005 0.2338,0.01 0.35088,0.0145 0.2736,0.0104 0.54762,0.0187 0.82217,0.0253 0.10408,0.002 0.20793,0.006 0.31213,0.008 0.37113,0.007 0.7429,0.0114 1.11569,0.0114 0.89155,-31.87998 30.11055,-32.81543 40.501409,-78.24277 -8.270949,11.96515 -22.914879,18.3736 -37.217879,23.98406 2.6791,-13.94523 7.63834,-25.41278 16.96744,-39.75209 -9.08896,3.65107 -29.25221,8.95716 -45.63133,20.10316 -1.81316,-12.50246 3.52699,-24.12639 25.38036,-35.87067 z"
           id="path16-3-75-5-2"
           inkscape:connector-curvature="0" />
        <circle
           style="opacity:0;fill:#bf881d;fill-opacity:0.66666667;fill-rule:nonzero;stroke:#005a00;stroke-width:1.26499999;stroke-miterlimit:4;stroke-dasharray:none;stroke-opacity:1"
           id="path10-4-9"
           cx="-130.75598"
           cy="350.80234"
           r="52.986183" />
        <path
           style="display:inline;opacity:1;fill:#323232;fill-opacity:1;fill-rule:nonzero;stroke:none;stroke-width:1.26499999;stroke-miterlimit:4;stroke-dasharray:none;stroke-opacity:1"
           d="m -133.16141,411.00478 c -21.07514,0 -39.52781,-11.22813 -49.70236,-28.02875 -5.30709,-8.76327 -8.36194,-19.04266 -8.36194,-30.03555 0,-32.06803 25.99627,-58.0643 58.0643,-58.06431 -58.05587,31.19999 0.41908,67.90115 0,116.12861 z"
           id="path16-3-4-1"
           inkscape:connector-curvature="0"
           sodipodi:nodetypes="csscc" />
        <path
           style="display:inline;opacity:1;fill:#646464;fill-opacity:0.78431373;fill-rule:nonzero;stroke:none;stroke-width:1.26499999;stroke-miterlimit:4;stroke-dasharray:none;stroke-opacity:1"
           d="m -133.16141,411.00477 c -21.07514,0 -39.52781,-11.22812 -49.70236,-28.02874 -3.38886,-46.4013 51.27416,-65.46649 68.36537,-72.33211 -18.61185,28.60741 -18.24393,52.1334 -18.66301,100.36085 z"
           id="path16-3-6-30-2"
           inkscape:connector-curvature="0"
           sodipodi:nodetypes="cccc" />
        <path
           style="display:inline;opacity:1;fill:#969696;fill-opacity:0.61568627;fill-rule:nonzero;stroke:none;stroke-width:1.26499999;stroke-miterlimit:4;stroke-dasharray:none;stroke-opacity:1"
           d="m -133.16141,411.00477 c -12.89478,0 -24.80782,-4.20333 -34.44368,-11.31458 -14.0077,-42.56414 49.79362,-41.48687 71.7697,-73.27852 -10.39086,45.42734 -36.43447,52.71312 -37.32602,84.5931 z"
           id="path16-3-6-7-7-7"
           inkscape:connector-curvature="0"
           sodipodi:nodetypes="cccc" />
      </g>
      <text
         id="text4694"
         y="501.30417"
         x="-207.99928"
         style="font-style:normal;font-weight:normal;font-size:13.11900234px;line-height:1.25;font-family:sans-serif;letter-spacing:0px;word-spacing:0px;fill:#000000;fill-opacity:1;stroke:none;stroke-width:0.32797506"
         xml:space="preserve"><tspan
           rotate="0 0 0 0 0"
           dx="0"
           style="font-style:normal;font-variant:normal;font-weight:normal;font-stretch:normal;font-size:87.46002197px;font-family:Dosis;-inkscape-font-specification:Dosis;letter-spacing:3.27975059px;stroke-width:0.32797506"
           y="501.30417"
           x="-207.99928"
           id="tspan4692"
           sodipodi:role="line">fury</tspan></text>
    </g>
  </g>
</svg>
